<mxfile host="app.diagrams.net" modified="2024-02-05T23:28:15.695Z" agent="Mozilla/5.0 (Windows NT 10.0; Win64; x64; rv:120.0) Gecko/20100101 Firefox/120.0" etag="OYwnq_sXrfgHpJbb6yeK" version="23.1.1" type="github">
  <diagram name="Page-1" id="Z-4o5SoYQt_Ydvmm7aLc">
    <mxGraphModel dx="2074" dy="1134" grid="1" gridSize="10" guides="1" tooltips="1" connect="1" arrows="1" fold="1" page="1" pageScale="1" pageWidth="827" pageHeight="1169" math="0" shadow="0">
      <root>
        <mxCell id="0" />
        <mxCell id="1" parent="0" />
        <mxCell id="6cfn4F42LhbV6ML8iK7L-2" value="" style="rounded=1;whiteSpace=wrap;html=1;" vertex="1" parent="1">
          <mxGeometry x="520" y="985" width="290" height="170" as="geometry" />
        </mxCell>
        <mxCell id="aCy3WBR2tWlXXyOGyQIN-7" style="edgeStyle=orthogonalEdgeStyle;rounded=0;orthogonalLoop=1;jettySize=auto;html=1;exitX=0.5;exitY=1;exitDx=0;exitDy=0;entryX=1;entryY=0.5;entryDx=0;entryDy=0;" parent="1" source="aCy3WBR2tWlXXyOGyQIN-1" target="aCy3WBR2tWlXXyOGyQIN-6" edge="1">
          <mxGeometry relative="1" as="geometry" />
        </mxCell>
        <mxCell id="aCy3WBR2tWlXXyOGyQIN-9" style="edgeStyle=orthogonalEdgeStyle;rounded=0;orthogonalLoop=1;jettySize=auto;html=1;exitX=0.5;exitY=1;exitDx=0;exitDy=0;entryX=0.5;entryY=0;entryDx=0;entryDy=0;" parent="1" source="aCy3WBR2tWlXXyOGyQIN-1" target="aCy3WBR2tWlXXyOGyQIN-8" edge="1">
          <mxGeometry relative="1" as="geometry" />
        </mxCell>
        <mxCell id="aCy3WBR2tWlXXyOGyQIN-1" value="Left Pane" style="rounded=1;whiteSpace=wrap;html=1;" parent="1" vertex="1">
          <mxGeometry x="130" y="195" width="80" height="30" as="geometry" />
        </mxCell>
        <mxCell id="6cfn4F42LhbV6ML8iK7L-4" style="edgeStyle=orthogonalEdgeStyle;rounded=0;orthogonalLoop=1;jettySize=auto;html=1;exitX=0.5;exitY=1;exitDx=0;exitDy=0;" edge="1" parent="1" source="aCy3WBR2tWlXXyOGyQIN-3">
          <mxGeometry relative="1" as="geometry">
            <mxPoint x="360" y="265" as="targetPoint" />
          </mxGeometry>
        </mxCell>
        <mxCell id="aCy3WBR2tWlXXyOGyQIN-3" value="Right Pane" style="rounded=1;whiteSpace=wrap;html=1;" parent="1" vertex="1">
          <mxGeometry x="320" y="195" width="80" height="30" as="geometry" />
        </mxCell>
        <mxCell id="aCy3WBR2tWlXXyOGyQIN-6" value="Search Box" style="ellipse;whiteSpace=wrap;html=1;" parent="1" vertex="1">
          <mxGeometry x="5" y="245" width="80" height="30" as="geometry" />
        </mxCell>
        <mxCell id="aCy3WBR2tWlXXyOGyQIN-11" style="edgeStyle=orthogonalEdgeStyle;rounded=0;orthogonalLoop=1;jettySize=auto;html=1;exitX=0.5;exitY=1;exitDx=0;exitDy=0;entryX=0.5;entryY=0;entryDx=0;entryDy=0;" parent="1" source="aCy3WBR2tWlXXyOGyQIN-8" target="aCy3WBR2tWlXXyOGyQIN-10" edge="1">
          <mxGeometry relative="1" as="geometry" />
        </mxCell>
        <mxCell id="aCy3WBR2tWlXXyOGyQIN-8" value="File Viewer" style="rounded=1;whiteSpace=wrap;html=1;" parent="1" vertex="1">
          <mxGeometry x="140" y="290" width="60" height="30" as="geometry" />
        </mxCell>
        <mxCell id="aCy3WBR2tWlXXyOGyQIN-16" style="edgeStyle=orthogonalEdgeStyle;rounded=0;orthogonalLoop=1;jettySize=auto;html=1;exitX=0.5;exitY=1;exitDx=0;exitDy=0;entryX=1;entryY=0.5;entryDx=0;entryDy=0;" parent="1" source="aCy3WBR2tWlXXyOGyQIN-10" target="aCy3WBR2tWlXXyOGyQIN-15" edge="1">
          <mxGeometry relative="1" as="geometry" />
        </mxCell>
        <mxCell id="aCy3WBR2tWlXXyOGyQIN-26" style="edgeStyle=orthogonalEdgeStyle;rounded=0;orthogonalLoop=1;jettySize=auto;html=1;exitX=0;exitY=0.5;exitDx=0;exitDy=0;" parent="1" source="aCy3WBR2tWlXXyOGyQIN-10" target="aCy3WBR2tWlXXyOGyQIN-25" edge="1">
          <mxGeometry relative="1" as="geometry" />
        </mxCell>
        <mxCell id="aCy3WBR2tWlXXyOGyQIN-10" value="File View Row" style="rounded=1;whiteSpace=wrap;html=1;" parent="1" vertex="1">
          <mxGeometry x="125" y="365" width="90" height="30" as="geometry" />
        </mxCell>
        <mxCell id="aCy3WBR2tWlXXyOGyQIN-15" value="File Name" style="rhombus;whiteSpace=wrap;html=1;" parent="1" vertex="1">
          <mxGeometry x="5" y="425" width="80" height="80" as="geometry" />
        </mxCell>
        <mxCell id="6cfn4F42LhbV6ML8iK7L-76" style="edgeStyle=orthogonalEdgeStyle;rounded=0;orthogonalLoop=1;jettySize=auto;html=1;exitX=0.5;exitY=1;exitDx=0;exitDy=0;" edge="1" parent="1" source="aCy3WBR2tWlXXyOGyQIN-17" target="aCy3WBR2tWlXXyOGyQIN-46">
          <mxGeometry relative="1" as="geometry" />
        </mxCell>
        <mxCell id="6cfn4F42LhbV6ML8iK7L-78" style="edgeStyle=orthogonalEdgeStyle;rounded=0;orthogonalLoop=1;jettySize=auto;html=1;exitX=1;exitY=0.5;exitDx=0;exitDy=0;entryX=0;entryY=0.5;entryDx=0;entryDy=0;" edge="1" parent="1" source="aCy3WBR2tWlXXyOGyQIN-17" target="aCy3WBR2tWlXXyOGyQIN-28">
          <mxGeometry relative="1" as="geometry" />
        </mxCell>
        <mxCell id="aCy3WBR2tWlXXyOGyQIN-17" value="Titlebar" style="rounded=1;whiteSpace=wrap;html=1;" parent="1" vertex="1">
          <mxGeometry x="470" y="50" width="80" height="30" as="geometry" />
        </mxCell>
        <mxCell id="aCy3WBR2tWlXXyOGyQIN-20" value="Key:" style="text;html=1;strokeColor=none;fillColor=none;align=center;verticalAlign=middle;whiteSpace=wrap;rounded=0;" parent="1" vertex="1">
          <mxGeometry x="535" y="995" width="50" height="20" as="geometry" />
        </mxCell>
        <mxCell id="aCy3WBR2tWlXXyOGyQIN-22" value="Container" style="rounded=1;whiteSpace=wrap;html=1;" parent="1" vertex="1">
          <mxGeometry x="552.5" y="1027.5" width="70" height="25" as="geometry" />
        </mxCell>
        <mxCell id="aCy3WBR2tWlXXyOGyQIN-23" value="Input" style="ellipse;whiteSpace=wrap;html=1;" parent="1" vertex="1">
          <mxGeometry x="665" y="1025" width="60" height="30" as="geometry" />
        </mxCell>
        <mxCell id="aCy3WBR2tWlXXyOGyQIN-25" value="Colour Button" style="ellipse;whiteSpace=wrap;html=1;" parent="1" vertex="1">
          <mxGeometry y="360" width="90" height="40" as="geometry" />
        </mxCell>
        <mxCell id="6cfn4F42LhbV6ML8iK7L-79" style="edgeStyle=orthogonalEdgeStyle;rounded=0;orthogonalLoop=1;jettySize=auto;html=1;exitX=0.5;exitY=1;exitDx=0;exitDy=0;entryX=0.5;entryY=0;entryDx=0;entryDy=0;" edge="1" parent="1" source="aCy3WBR2tWlXXyOGyQIN-28" target="aCy3WBR2tWlXXyOGyQIN-30">
          <mxGeometry relative="1" as="geometry" />
        </mxCell>
        <mxCell id="aCy3WBR2tWlXXyOGyQIN-28" value="New Element Button" style="ellipse;whiteSpace=wrap;html=1;" parent="1" vertex="1">
          <mxGeometry x="605" y="45" width="120" height="40" as="geometry" />
        </mxCell>
        <mxCell id="aCy3WBR2tWlXXyOGyQIN-40" style="edgeStyle=orthogonalEdgeStyle;rounded=0;orthogonalLoop=1;jettySize=auto;html=1;exitX=0.5;exitY=1;exitDx=0;exitDy=0;entryX=0;entryY=0.5;entryDx=0;entryDy=0;" parent="1" source="aCy3WBR2tWlXXyOGyQIN-30" target="aCy3WBR2tWlXXyOGyQIN-34" edge="1">
          <mxGeometry relative="1" as="geometry" />
        </mxCell>
        <mxCell id="aCy3WBR2tWlXXyOGyQIN-41" style="edgeStyle=orthogonalEdgeStyle;rounded=0;orthogonalLoop=1;jettySize=auto;html=1;exitX=0.5;exitY=1;exitDx=0;exitDy=0;entryX=0;entryY=0.5;entryDx=0;entryDy=0;" parent="1" source="aCy3WBR2tWlXXyOGyQIN-30" target="aCy3WBR2tWlXXyOGyQIN-35" edge="1">
          <mxGeometry relative="1" as="geometry" />
        </mxCell>
        <mxCell id="aCy3WBR2tWlXXyOGyQIN-42" style="edgeStyle=orthogonalEdgeStyle;rounded=0;orthogonalLoop=1;jettySize=auto;html=1;exitX=0.5;exitY=1;exitDx=0;exitDy=0;entryX=0;entryY=0.5;entryDx=0;entryDy=0;" parent="1" source="aCy3WBR2tWlXXyOGyQIN-30" target="aCy3WBR2tWlXXyOGyQIN-36" edge="1">
          <mxGeometry relative="1" as="geometry" />
        </mxCell>
        <mxCell id="aCy3WBR2tWlXXyOGyQIN-43" style="edgeStyle=orthogonalEdgeStyle;rounded=0;orthogonalLoop=1;jettySize=auto;html=1;exitX=0.5;exitY=1;exitDx=0;exitDy=0;entryX=0;entryY=0.5;entryDx=0;entryDy=0;" parent="1" source="aCy3WBR2tWlXXyOGyQIN-30" target="aCy3WBR2tWlXXyOGyQIN-37" edge="1">
          <mxGeometry relative="1" as="geometry" />
        </mxCell>
        <mxCell id="aCy3WBR2tWlXXyOGyQIN-45" style="edgeStyle=orthogonalEdgeStyle;rounded=0;orthogonalLoop=1;jettySize=auto;html=1;exitX=0.5;exitY=1;exitDx=0;exitDy=0;entryX=0;entryY=0.5;entryDx=0;entryDy=0;" parent="1" source="aCy3WBR2tWlXXyOGyQIN-30" target="aCy3WBR2tWlXXyOGyQIN-38" edge="1">
          <mxGeometry relative="1" as="geometry" />
        </mxCell>
        <mxCell id="aCy3WBR2tWlXXyOGyQIN-30" value="New Element Popover" style="rounded=1;whiteSpace=wrap;html=1;" parent="1" vertex="1">
          <mxGeometry x="620" y="120" width="90" height="40" as="geometry" />
        </mxCell>
        <mxCell id="aCy3WBR2tWlXXyOGyQIN-34" value="New Title" style="ellipse;whiteSpace=wrap;html=1;" parent="1" vertex="1">
          <mxGeometry x="740" y="165" width="80" height="30" as="geometry" />
        </mxCell>
        <mxCell id="aCy3WBR2tWlXXyOGyQIN-35" value="New Image" style="ellipse;whiteSpace=wrap;html=1;" parent="1" vertex="1">
          <mxGeometry x="740" y="205" width="80" height="30" as="geometry" />
        </mxCell>
        <mxCell id="aCy3WBR2tWlXXyOGyQIN-36" value="New Body" style="ellipse;whiteSpace=wrap;html=1;" parent="1" vertex="1">
          <mxGeometry x="740" y="245" width="80" height="30" as="geometry" />
        </mxCell>
        <mxCell id="aCy3WBR2tWlXXyOGyQIN-37" value="New List" style="ellipse;whiteSpace=wrap;html=1;" parent="1" vertex="1">
          <mxGeometry x="740" y="285" width="80" height="30" as="geometry" />
        </mxCell>
        <mxCell id="aCy3WBR2tWlXXyOGyQIN-38" value="New Task" style="ellipse;whiteSpace=wrap;html=1;" parent="1" vertex="1">
          <mxGeometry x="740" y="325" width="80" height="30" as="geometry" />
        </mxCell>
        <mxCell id="aCy3WBR2tWlXXyOGyQIN-49" style="edgeStyle=orthogonalEdgeStyle;rounded=0;orthogonalLoop=1;jettySize=auto;html=1;exitX=0.5;exitY=1;exitDx=0;exitDy=0;entryX=0.5;entryY=0;entryDx=0;entryDy=0;" parent="1" source="aCy3WBR2tWlXXyOGyQIN-46" target="aCy3WBR2tWlXXyOGyQIN-48" edge="1">
          <mxGeometry relative="1" as="geometry" />
        </mxCell>
        <mxCell id="aCy3WBR2tWlXXyOGyQIN-46" value="Switch to edit mode" style="ellipse;whiteSpace=wrap;html=1;" parent="1" vertex="1">
          <mxGeometry x="450" y="180" width="120" height="40" as="geometry" />
        </mxCell>
        <mxCell id="aCy3WBR2tWlXXyOGyQIN-48" value="Switch to view mode" style="ellipse;whiteSpace=wrap;html=1;" parent="1" vertex="1">
          <mxGeometry x="450" y="250" width="120" height="40" as="geometry" />
        </mxCell>
        <mxCell id="6cfn4F42LhbV6ML8iK7L-3" value="Label" style="rhombus;whiteSpace=wrap;html=1;" vertex="1" parent="1">
          <mxGeometry x="547.5" y="1065" width="80" height="80" as="geometry" />
        </mxCell>
        <mxCell id="6cfn4F42LhbV6ML8iK7L-5" value="Window" style="shape=process;whiteSpace=wrap;html=1;backgroundOutline=1;" vertex="1" parent="1">
          <mxGeometry x="655" y="1090" width="85" height="30" as="geometry" />
        </mxCell>
        <mxCell id="6cfn4F42LhbV6ML8iK7L-9" style="edgeStyle=orthogonalEdgeStyle;rounded=0;orthogonalLoop=1;jettySize=auto;html=1;exitX=0.5;exitY=1;exitDx=0;exitDy=0;" edge="1" parent="1" source="6cfn4F42LhbV6ML8iK7L-6" target="aCy3WBR2tWlXXyOGyQIN-3">
          <mxGeometry relative="1" as="geometry" />
        </mxCell>
        <mxCell id="6cfn4F42LhbV6ML8iK7L-11" style="edgeStyle=orthogonalEdgeStyle;rounded=0;orthogonalLoop=1;jettySize=auto;html=1;exitX=0.5;exitY=1;exitDx=0;exitDy=0;" edge="1" parent="1" source="6cfn4F42LhbV6ML8iK7L-6" target="aCy3WBR2tWlXXyOGyQIN-1">
          <mxGeometry relative="1" as="geometry" />
        </mxCell>
        <mxCell id="6cfn4F42LhbV6ML8iK7L-71" style="edgeStyle=orthogonalEdgeStyle;rounded=0;orthogonalLoop=1;jettySize=auto;html=1;exitX=1;exitY=0.5;exitDx=0;exitDy=0;entryX=0;entryY=0.5;entryDx=0;entryDy=0;" edge="1" parent="1" source="6cfn4F42LhbV6ML8iK7L-6" target="aCy3WBR2tWlXXyOGyQIN-17">
          <mxGeometry relative="1" as="geometry" />
        </mxCell>
        <mxCell id="6cfn4F42LhbV6ML8iK7L-6" value="Main Window" style="shape=process;whiteSpace=wrap;html=1;backgroundOutline=1;" vertex="1" parent="1">
          <mxGeometry x="240" y="40" width="120" height="50" as="geometry" />
        </mxCell>
        <mxCell id="6cfn4F42LhbV6ML8iK7L-16" style="edgeStyle=orthogonalEdgeStyle;rounded=0;orthogonalLoop=1;jettySize=auto;html=1;exitX=0.5;exitY=1;exitDx=0;exitDy=0;entryX=0.5;entryY=0;entryDx=0;entryDy=0;" edge="1" parent="1" source="6cfn4F42LhbV6ML8iK7L-12" target="6cfn4F42LhbV6ML8iK7L-13">
          <mxGeometry relative="1" as="geometry" />
        </mxCell>
        <mxCell id="6cfn4F42LhbV6ML8iK7L-12" value="Note View" style="rounded=1;whiteSpace=wrap;html=1;" vertex="1" parent="1">
          <mxGeometry x="315" y="265" width="90" height="40" as="geometry" />
        </mxCell>
        <mxCell id="6cfn4F42LhbV6ML8iK7L-72" style="edgeStyle=orthogonalEdgeStyle;rounded=0;orthogonalLoop=1;jettySize=auto;html=1;exitX=0.5;exitY=1;exitDx=0;exitDy=0;" edge="1" parent="1" source="6cfn4F42LhbV6ML8iK7L-13" target="6cfn4F42LhbV6ML8iK7L-23">
          <mxGeometry relative="1" as="geometry" />
        </mxCell>
        <mxCell id="6cfn4F42LhbV6ML8iK7L-73" style="edgeStyle=orthogonalEdgeStyle;rounded=0;orthogonalLoop=1;jettySize=auto;html=1;exitX=0.5;exitY=1;exitDx=0;exitDy=0;entryX=0.5;entryY=0;entryDx=0;entryDy=0;" edge="1" parent="1" source="6cfn4F42LhbV6ML8iK7L-13" target="6cfn4F42LhbV6ML8iK7L-18">
          <mxGeometry relative="1" as="geometry" />
        </mxCell>
        <mxCell id="6cfn4F42LhbV6ML8iK7L-74" style="edgeStyle=orthogonalEdgeStyle;rounded=0;orthogonalLoop=1;jettySize=auto;html=1;exitX=0.5;exitY=1;exitDx=0;exitDy=0;entryX=0.5;entryY=0;entryDx=0;entryDy=0;" edge="1" parent="1" source="6cfn4F42LhbV6ML8iK7L-13" target="6cfn4F42LhbV6ML8iK7L-17">
          <mxGeometry relative="1" as="geometry" />
        </mxCell>
        <mxCell id="6cfn4F42LhbV6ML8iK7L-75" style="edgeStyle=orthogonalEdgeStyle;rounded=0;orthogonalLoop=1;jettySize=auto;html=1;exitX=0.5;exitY=1;exitDx=0;exitDy=0;" edge="1" parent="1" source="6cfn4F42LhbV6ML8iK7L-13" target="6cfn4F42LhbV6ML8iK7L-24">
          <mxGeometry relative="1" as="geometry">
            <Array as="points">
              <mxPoint x="360" y="428" />
              <mxPoint x="520" y="428" />
            </Array>
          </mxGeometry>
        </mxCell>
        <mxCell id="6cfn4F42LhbV6ML8iK7L-13" value="Element" style="rounded=1;whiteSpace=wrap;html=1;" vertex="1" parent="1">
          <mxGeometry x="322.5" y="355" width="75" height="40" as="geometry" />
        </mxCell>
        <mxCell id="6cfn4F42LhbV6ML8iK7L-17" value="Title" style="ellipse;whiteSpace=wrap;html=1;" vertex="1" parent="1">
          <mxGeometry x="200" y="455" width="70" height="40" as="geometry" />
        </mxCell>
        <mxCell id="6cfn4F42LhbV6ML8iK7L-18" value="Body" style="ellipse;whiteSpace=wrap;html=1;" vertex="1" parent="1">
          <mxGeometry x="300" y="455" width="70" height="40" as="geometry" />
        </mxCell>
        <mxCell id="6cfn4F42LhbV6ML8iK7L-32" style="edgeStyle=orthogonalEdgeStyle;rounded=0;orthogonalLoop=1;jettySize=auto;html=1;exitX=0.5;exitY=1;exitDx=0;exitDy=0;entryX=0.5;entryY=0;entryDx=0;entryDy=0;" edge="1" parent="1" source="6cfn4F42LhbV6ML8iK7L-23">
          <mxGeometry relative="1" as="geometry">
            <mxPoint x="430" y="545" as="targetPoint" />
          </mxGeometry>
        </mxCell>
        <mxCell id="6cfn4F42LhbV6ML8iK7L-23" value="List" style="rounded=1;whiteSpace=wrap;html=1;" vertex="1" parent="1">
          <mxGeometry x="400" y="460" width="60" height="30" as="geometry" />
        </mxCell>
        <mxCell id="6cfn4F42LhbV6ML8iK7L-33" style="edgeStyle=orthogonalEdgeStyle;rounded=0;orthogonalLoop=1;jettySize=auto;html=1;exitX=0.5;exitY=1;exitDx=0;exitDy=0;entryX=0.5;entryY=0;entryDx=0;entryDy=0;" edge="1" parent="1" source="6cfn4F42LhbV6ML8iK7L-24" target="6cfn4F42LhbV6ML8iK7L-30">
          <mxGeometry relative="1" as="geometry" />
        </mxCell>
        <mxCell id="6cfn4F42LhbV6ML8iK7L-24" value="Task" style="rounded=1;whiteSpace=wrap;html=1;" vertex="1" parent="1">
          <mxGeometry x="490" y="460" width="60" height="30" as="geometry" />
        </mxCell>
        <mxCell id="6cfn4F42LhbV6ML8iK7L-36" style="edgeStyle=orthogonalEdgeStyle;rounded=0;orthogonalLoop=1;jettySize=auto;html=1;exitX=1;exitY=0.5;exitDx=0;exitDy=0;" edge="1" parent="1" source="6cfn4F42LhbV6ML8iK7L-30" target="6cfn4F42LhbV6ML8iK7L-35">
          <mxGeometry relative="1" as="geometry" />
        </mxCell>
        <mxCell id="6cfn4F42LhbV6ML8iK7L-38" style="edgeStyle=orthogonalEdgeStyle;rounded=0;orthogonalLoop=1;jettySize=auto;html=1;exitX=0.5;exitY=1;exitDx=0;exitDy=0;entryX=0;entryY=0.5;entryDx=0;entryDy=0;" edge="1" parent="1" source="6cfn4F42LhbV6ML8iK7L-30" target="6cfn4F42LhbV6ML8iK7L-37">
          <mxGeometry relative="1" as="geometry" />
        </mxCell>
        <mxCell id="6cfn4F42LhbV6ML8iK7L-30" value="Task Item" style="rounded=1;whiteSpace=wrap;html=1;" vertex="1" parent="1">
          <mxGeometry x="520" y="555" width="70" height="30" as="geometry" />
        </mxCell>
        <mxCell id="6cfn4F42LhbV6ML8iK7L-34" value="List Item" style="ellipse;whiteSpace=wrap;html=1;" vertex="1" parent="1">
          <mxGeometry x="392.5" y="545" width="75" height="50" as="geometry" />
        </mxCell>
        <mxCell id="6cfn4F42LhbV6ML8iK7L-35" value="Check box" style="ellipse;whiteSpace=wrap;html=1;" vertex="1" parent="1">
          <mxGeometry x="630" y="545" width="90" height="50" as="geometry" />
        </mxCell>
        <mxCell id="6cfn4F42LhbV6ML8iK7L-37" value="Entry" style="ellipse;whiteSpace=wrap;html=1;" vertex="1" parent="1">
          <mxGeometry x="631.25" y="615" width="87.5" height="50" as="geometry" />
        </mxCell>
        <mxCell id="6cfn4F42LhbV6ML8iK7L-70" style="edgeStyle=orthogonalEdgeStyle;rounded=0;orthogonalLoop=1;jettySize=auto;html=1;exitX=0.5;exitY=1;exitDx=0;exitDy=0;entryX=0.5;entryY=0;entryDx=0;entryDy=0;" edge="1" parent="1" source="6cfn4F42LhbV6ML8iK7L-39" target="6cfn4F42LhbV6ML8iK7L-40">
          <mxGeometry relative="1" as="geometry" />
        </mxCell>
        <mxCell id="6cfn4F42LhbV6ML8iK7L-39" value="Insert Image Window" style="shape=process;whiteSpace=wrap;html=1;backgroundOutline=1;" vertex="1" parent="1">
          <mxGeometry x="30" y="570" width="120" height="50" as="geometry" />
        </mxCell>
        <mxCell id="6cfn4F42LhbV6ML8iK7L-49" style="edgeStyle=orthogonalEdgeStyle;rounded=0;orthogonalLoop=1;jettySize=auto;html=1;exitX=0.5;exitY=1;exitDx=0;exitDy=0;entryX=0;entryY=0.5;entryDx=0;entryDy=0;" edge="1" parent="1" source="6cfn4F42LhbV6ML8iK7L-40" target="6cfn4F42LhbV6ML8iK7L-42">
          <mxGeometry relative="1" as="geometry" />
        </mxCell>
        <mxCell id="6cfn4F42LhbV6ML8iK7L-50" style="edgeStyle=orthogonalEdgeStyle;rounded=0;orthogonalLoop=1;jettySize=auto;html=1;exitX=0.5;exitY=1;exitDx=0;exitDy=0;entryX=0;entryY=0.5;entryDx=0;entryDy=0;" edge="1" parent="1" source="6cfn4F42LhbV6ML8iK7L-40" target="6cfn4F42LhbV6ML8iK7L-43">
          <mxGeometry relative="1" as="geometry" />
        </mxCell>
        <mxCell id="6cfn4F42LhbV6ML8iK7L-51" style="edgeStyle=orthogonalEdgeStyle;rounded=0;orthogonalLoop=1;jettySize=auto;html=1;exitX=0.5;exitY=1;exitDx=0;exitDy=0;entryX=0;entryY=0.5;entryDx=0;entryDy=0;" edge="1" parent="1" source="6cfn4F42LhbV6ML8iK7L-40" target="6cfn4F42LhbV6ML8iK7L-44">
          <mxGeometry relative="1" as="geometry" />
        </mxCell>
        <mxCell id="6cfn4F42LhbV6ML8iK7L-52" style="edgeStyle=orthogonalEdgeStyle;rounded=0;orthogonalLoop=1;jettySize=auto;html=1;exitX=0.5;exitY=1;exitDx=0;exitDy=0;entryX=0;entryY=0.5;entryDx=0;entryDy=0;" edge="1" parent="1" source="6cfn4F42LhbV6ML8iK7L-40" target="6cfn4F42LhbV6ML8iK7L-45">
          <mxGeometry relative="1" as="geometry" />
        </mxCell>
        <mxCell id="6cfn4F42LhbV6ML8iK7L-53" style="edgeStyle=orthogonalEdgeStyle;rounded=0;orthogonalLoop=1;jettySize=auto;html=1;exitX=0.5;exitY=1;exitDx=0;exitDy=0;entryX=0;entryY=0.5;entryDx=0;entryDy=0;" edge="1" parent="1" source="6cfn4F42LhbV6ML8iK7L-40" target="6cfn4F42LhbV6ML8iK7L-46">
          <mxGeometry relative="1" as="geometry" />
        </mxCell>
        <mxCell id="6cfn4F42LhbV6ML8iK7L-54" style="edgeStyle=orthogonalEdgeStyle;rounded=0;orthogonalLoop=1;jettySize=auto;html=1;exitX=0.5;exitY=1;exitDx=0;exitDy=0;entryX=0;entryY=0.5;entryDx=0;entryDy=0;" edge="1" parent="1" source="6cfn4F42LhbV6ML8iK7L-40" target="6cfn4F42LhbV6ML8iK7L-47">
          <mxGeometry relative="1" as="geometry" />
        </mxCell>
        <mxCell id="6cfn4F42LhbV6ML8iK7L-55" style="edgeStyle=orthogonalEdgeStyle;rounded=0;orthogonalLoop=1;jettySize=auto;html=1;exitX=0.5;exitY=1;exitDx=0;exitDy=0;entryX=0;entryY=0.5;entryDx=0;entryDy=0;" edge="1" parent="1" source="6cfn4F42LhbV6ML8iK7L-40" target="6cfn4F42LhbV6ML8iK7L-48">
          <mxGeometry relative="1" as="geometry" />
        </mxCell>
        <mxCell id="6cfn4F42LhbV6ML8iK7L-40" value="Preference Page" style="rounded=1;whiteSpace=wrap;html=1;" vertex="1" parent="1">
          <mxGeometry x="30" y="670" width="120" height="60" as="geometry" />
        </mxCell>
        <mxCell id="6cfn4F42LhbV6ML8iK7L-57" style="edgeStyle=orthogonalEdgeStyle;rounded=0;orthogonalLoop=1;jettySize=auto;html=1;exitX=1;exitY=0.5;exitDx=0;exitDy=0;entryX=0;entryY=0.5;entryDx=0;entryDy=0;" edge="1" parent="1" source="6cfn4F42LhbV6ML8iK7L-42" target="6cfn4F42LhbV6ML8iK7L-56">
          <mxGeometry relative="1" as="geometry" />
        </mxCell>
        <mxCell id="6cfn4F42LhbV6ML8iK7L-42" value="Source Row" style="rounded=1;whiteSpace=wrap;html=1;" vertex="1" parent="1">
          <mxGeometry x="170" y="750" width="95" height="40" as="geometry" />
        </mxCell>
        <mxCell id="6cfn4F42LhbV6ML8iK7L-64" style="edgeStyle=orthogonalEdgeStyle;rounded=0;orthogonalLoop=1;jettySize=auto;html=1;exitX=1;exitY=0.5;exitDx=0;exitDy=0;entryX=0;entryY=0.5;entryDx=0;entryDy=0;" edge="1" parent="1" source="6cfn4F42LhbV6ML8iK7L-43" target="6cfn4F42LhbV6ML8iK7L-58">
          <mxGeometry relative="1" as="geometry" />
        </mxCell>
        <mxCell id="6cfn4F42LhbV6ML8iK7L-43" value="URL Row" style="rounded=1;whiteSpace=wrap;html=1;" vertex="1" parent="1">
          <mxGeometry x="167.5" y="810" width="95" height="40" as="geometry" />
        </mxCell>
        <mxCell id="6cfn4F42LhbV6ML8iK7L-65" style="edgeStyle=orthogonalEdgeStyle;rounded=0;orthogonalLoop=1;jettySize=auto;html=1;exitX=1;exitY=0.5;exitDx=0;exitDy=0;entryX=0;entryY=0.5;entryDx=0;entryDy=0;" edge="1" parent="1" source="6cfn4F42LhbV6ML8iK7L-44" target="6cfn4F42LhbV6ML8iK7L-59">
          <mxGeometry relative="1" as="geometry" />
        </mxCell>
        <mxCell id="6cfn4F42LhbV6ML8iK7L-44" value="File Row" style="rounded=1;whiteSpace=wrap;html=1;" vertex="1" parent="1">
          <mxGeometry x="170" y="870" width="95" height="40" as="geometry" />
        </mxCell>
        <mxCell id="6cfn4F42LhbV6ML8iK7L-66" style="edgeStyle=orthogonalEdgeStyle;rounded=0;orthogonalLoop=1;jettySize=auto;html=1;exitX=1;exitY=0.5;exitDx=0;exitDy=0;entryX=0;entryY=0.5;entryDx=0;entryDy=0;" edge="1" parent="1" source="6cfn4F42LhbV6ML8iK7L-45" target="6cfn4F42LhbV6ML8iK7L-60">
          <mxGeometry relative="1" as="geometry" />
        </mxCell>
        <mxCell id="6cfn4F42LhbV6ML8iK7L-45" value="Wikimedia Row" style="rounded=1;whiteSpace=wrap;html=1;" vertex="1" parent="1">
          <mxGeometry x="171.25" y="930" width="95" height="40" as="geometry" />
        </mxCell>
        <mxCell id="6cfn4F42LhbV6ML8iK7L-67" style="edgeStyle=orthogonalEdgeStyle;rounded=0;orthogonalLoop=1;jettySize=auto;html=1;exitX=1;exitY=0.5;exitDx=0;exitDy=0;entryX=0;entryY=0.5;entryDx=0;entryDy=0;" edge="1" parent="1" source="6cfn4F42LhbV6ML8iK7L-46" target="6cfn4F42LhbV6ML8iK7L-61">
          <mxGeometry relative="1" as="geometry" />
        </mxCell>
        <mxCell id="6cfn4F42LhbV6ML8iK7L-46" value="Web URL Row" style="rounded=1;whiteSpace=wrap;html=1;" vertex="1" parent="1">
          <mxGeometry x="168.75" y="990" width="95" height="40" as="geometry" />
        </mxCell>
        <mxCell id="6cfn4F42LhbV6ML8iK7L-68" style="edgeStyle=orthogonalEdgeStyle;rounded=0;orthogonalLoop=1;jettySize=auto;html=1;exitX=1;exitY=0.5;exitDx=0;exitDy=0;" edge="1" parent="1" source="6cfn4F42LhbV6ML8iK7L-47" target="6cfn4F42LhbV6ML8iK7L-62">
          <mxGeometry relative="1" as="geometry" />
        </mxCell>
        <mxCell id="6cfn4F42LhbV6ML8iK7L-47" value="Cache Row" style="rounded=1;whiteSpace=wrap;html=1;" vertex="1" parent="1">
          <mxGeometry x="171.25" y="1050" width="95" height="40" as="geometry" />
        </mxCell>
        <mxCell id="6cfn4F42LhbV6ML8iK7L-69" value="" style="edgeStyle=orthogonalEdgeStyle;rounded=0;orthogonalLoop=1;jettySize=auto;html=1;" edge="1" parent="1" source="6cfn4F42LhbV6ML8iK7L-48" target="6cfn4F42LhbV6ML8iK7L-63">
          <mxGeometry relative="1" as="geometry" />
        </mxCell>
        <mxCell id="6cfn4F42LhbV6ML8iK7L-48" value="Scale Row" style="rounded=1;whiteSpace=wrap;html=1;" vertex="1" parent="1">
          <mxGeometry x="170" y="1110" width="95" height="40" as="geometry" />
        </mxCell>
        <mxCell id="6cfn4F42LhbV6ML8iK7L-56" value="Source Dropdown" style="ellipse;whiteSpace=wrap;html=1;" vertex="1" parent="1">
          <mxGeometry x="300" y="745" width="120" height="50" as="geometry" />
        </mxCell>
        <mxCell id="6cfn4F42LhbV6ML8iK7L-58" value="URL Entry" style="ellipse;whiteSpace=wrap;html=1;" vertex="1" parent="1">
          <mxGeometry x="300" y="805" width="120" height="50" as="geometry" />
        </mxCell>
        <mxCell id="6cfn4F42LhbV6ML8iK7L-59" value="File Path Entry" style="ellipse;whiteSpace=wrap;html=1;" vertex="1" parent="1">
          <mxGeometry x="300" y="865" width="120" height="50" as="geometry" />
        </mxCell>
        <mxCell id="6cfn4F42LhbV6ML8iK7L-60" value="Wikimedia Entry" style="ellipse;whiteSpace=wrap;html=1;" vertex="1" parent="1">
          <mxGeometry x="300" y="925" width="120" height="50" as="geometry" />
        </mxCell>
        <mxCell id="6cfn4F42LhbV6ML8iK7L-61" value="Web URL Entry" style="ellipse;whiteSpace=wrap;html=1;" vertex="1" parent="1">
          <mxGeometry x="300" y="985" width="120" height="50" as="geometry" />
        </mxCell>
        <mxCell id="6cfn4F42LhbV6ML8iK7L-62" value="Cache Toggle" style="ellipse;whiteSpace=wrap;html=1;" vertex="1" parent="1">
          <mxGeometry x="300" y="1045" width="120" height="50" as="geometry" />
        </mxCell>
        <mxCell id="6cfn4F42LhbV6ML8iK7L-63" value="Scale Slider" style="ellipse;whiteSpace=wrap;html=1;" vertex="1" parent="1">
          <mxGeometry x="300" y="1105" width="120" height="50" as="geometry" />
        </mxCell>
      </root>
    </mxGraphModel>
  </diagram>
</mxfile>
